<?xml version="1.0" standalone="no"?><!DOCTYPE svg PUBLIC "-//W3C//DTD SVG 1.1//EN" "http://www.w3.org/Graphics/SVG/1.1/DTD/svg11.dtd"><svg t="1548065288522" class="icon" style="" viewBox="0 0 1024 1024" version="1.1" xmlns="http://www.w3.org/2000/svg" p-id="4890" xmlns:xlink="http://www.w3.org/1999/xlink" width="128" height="128"><defs><style type="text/css"></style></defs><path d="M512 209.132308l194.087385 112.088615v224.098462L512 657.329231 317.912615 545.319385V321.142154L512 209.132308m0-79.399385a69.553231 69.553231 0 0 0-34.107077 8.113231l-204.642461 118.153846a75.776 75.776 0 0 0-34.107077 59.076923v236.307692a75.618462 75.618462 0 0 0 34.107077 59.076923l204.642461 118.153847c9.373538 5.435077 21.740308 8.113231 34.107077 8.11323s24.733538-2.678154 34.107077-8.11323l204.642461-118.153847A75.618462 75.618462 0 0 0 784.856615 551.384615V315.076923a75.776 75.776 0 0 0-34.107077-59.076923l-204.642461-118.153846a69.553231 69.553231 0 0 0-34.107077-8.113231z" fill="#bfbfbf" p-id="4891"></path><path d="M238.749538 90.978462l159.980308 92.396307v184.713846L238.749538 460.406154 78.769231 368.088615V183.296l159.980307-92.317538m0-79.399385a69.553231 69.553231 0 0 0-34.107076 8.113231L34.107077 118.153846A75.776 75.776 0 0 0 0 177.230769v196.923077a75.618462 75.618462 0 0 0 34.107077 59.076923l170.535385 98.461539c9.373538 5.435077 21.740308 8.113231 34.107076 8.11323s24.733538-2.678154 34.107077-8.11323L443.392 433.230769a75.618462 75.618462 0 0 0 34.107077-59.076923v-196.923077a75.776 75.776 0 0 0-34.107077-59.076923L272.856615 19.692308a69.553231 69.553231 0 0 0-34.107077-8.113231zM784.856615 90.978462l159.980308 92.396307v184.713846L784.856615 460.406154 624.876308 368.088615V183.296l159.980307-92.317538m0-79.399385a69.553231 69.553231 0 0 0-34.107077 8.113231L580.214154 118.153846a75.776 75.776 0 0 0-34.107077 59.076923v196.923077a75.618462 75.618462 0 0 0 34.107077 59.076923l170.535384 98.461539c9.373538 5.435077 21.740308 8.113231 34.107077 8.11323s24.733538-2.678154 34.107077-8.11323l170.535385-98.461539a75.618462 75.618462 0 0 0 34.107077-59.076923v-196.923077a75.776 75.776 0 0 0-34.107077-59.076923L818.963692 19.692308a69.553231 69.553231 0 0 0-34.107077-8.113231zM512 563.593846l159.980308 92.396308v184.713846L512 933.021538l-159.980308-92.396307V655.911385L512 563.593846m0-79.399384a69.553231 69.553231 0 0 0-34.107077 8.11323L307.357538 590.769231a75.618462 75.618462 0 0 0-34.107076 59.076923v196.923077a75.618462 75.618462 0 0 0 34.107076 59.076923l170.535385 98.461538c9.373538 5.435077 21.740308 8.113231 34.107077 8.113231s24.733538-2.678154 34.107077-8.113231l170.535385-98.461538a75.618462 75.618462 0 0 0 34.107076-59.076923v-196.923077a75.618462 75.618462 0 0 0-34.107076-59.076923L546.107077 492.307692a69.553231 69.553231 0 0 0-34.107077-8.11323z" fill="#bfbfbf" p-id="4892"></path></svg>