<?xml version="1.0" standalone="no"?><!DOCTYPE svg PUBLIC "-//W3C//DTD SVG 1.1//EN" "http://www.w3.org/Graphics/SVG/1.1/DTD/svg11.dtd"><svg t="1545712784316" class="icon" style="" viewBox="0 0 1024 1024" version="1.1" xmlns="http://www.w3.org/2000/svg" p-id="5321" xmlns:xlink="http://www.w3.org/1999/xlink" width="128" height="128"><defs><style type="text/css"></style></defs><path d="M436.767 64.223H96.212c-17.6 0-32 14.4-32 32v340.555c0 17.6 14.4 32 32 32h340.555c17.6 0 32-14.4 32-32V96.223c0-17.6-14.4-32-32-32zM927.333 64.223H586.779c-17.6 0-32 14.4-32 32v340.555c0 17.6 14.4 32 32 32h340.555c17.6 0 32-14.4 32-32V96.223c-0.001-17.6-14.401-32-32.001-32zM436.767 555.003H96.212c-17.6 0-32 14.4-32 32v340.555c0 17.6 14.4 32 32 32h340.555c17.6 0 32-14.4 32-32V587.003c0-17.6-14.4-32-32-32zM927.333 555.003H586.779c-17.6 0-32 14.4-32 32v340.555c0 17.6 14.4 32 32 32h340.555c17.6 0 32-14.4 32-32V587.003c-0.001-17.6-14.401-32-32.001-32z" p-id="5322" fill="#bfbfbf"></path></svg>