<?xml version="1.0" standalone="no"?><!DOCTYPE svg PUBLIC "-//W3C//DTD SVG 1.1//EN" "http://www.w3.org/Graphics/SVG/1.1/DTD/svg11.dtd"><svg t="1547650637689" class="icon" style="" viewBox="0 0 1024 1024" version="1.1" xmlns="http://www.w3.org/2000/svg" p-id="2569" xmlns:xlink="http://www.w3.org/1999/xlink" width="128" height="128"><defs><style type="text/css"></style></defs><path d="M373.344 770.688c-17.824 0-33.248-7.936-36.864-25.408l-49.952-239.136-32.896 56.8c-6.752 11.456-19.104 19.616-32.384 19.616L39.328 582.56c-20.768 0-37.632-16.864-37.632-37.6 0-20.768 16.864-37.664 37.632-37.664l160.416 0 71.52-120.864c7.904-13.344 23.072-20.608 38.56-17.984 15.328 2.56 27.52 14.272 30.656 29.472l30.24 146.144L439.68 161.472c3.232-17.92 18.816-30.368 37.056-30.368 0.032 0 0.128 0 0.16 0 18.272 0 33.856 12.672 36.928 30.656l73.6 429.472 23.68-60c5.632-14.4 19.52-23.968 34.976-23.968l333.888 0c20.768 0 37.6 16.864 37.6 37.664 0 20.736-16.832 37.6-37.6 37.6l-308.32 0-63.68 160.96c-6.176 15.68-21.824 25.184-38.88 23.584-16.736-1.76-30.336-14.464-33.184-31.072l-60.064-350.912L410.368 744.32c-3.2 17.728-18.528 26.368-36.544 26.368C373.664 770.688 373.504 770.688 373.344 770.688z" p-id="2570" fill="#bfbfbf"></path></svg>