<?xml version="1.0" standalone="no"?><!DOCTYPE svg PUBLIC "-//W3C//DTD SVG 1.1//EN" "http://www.w3.org/Graphics/SVG/1.1/DTD/svg11.dtd"><svg t="1545443025459" class="icon" style="" viewBox="0 0 1024 1024" version="1.1" xmlns="http://www.w3.org/2000/svg" p-id="1103" xmlns:xlink="http://www.w3.org/1999/xlink" width="200" height="200"><defs><style type="text/css"></style></defs><path d="M512 247.466667c213.333333 0 362.666667 187.733333 413.866667 264.533333-51.2 81.066667-200.533333 264.533333-413.866667 264.533333S149.333333 588.8 98.133333 512C149.333333 430.933333 298.666667 247.466667 512 247.466667M512 170.666667C187.733333 170.666667 0 512 0 512s187.733333 341.333333 512 341.333333 512-341.333333 512-341.333333-187.733333-341.333333-512-341.333333z" p-id="1104"></path><path d="M512 682.666667c-93.866667 0-170.666667-76.8-170.666667-170.666667s76.8-170.666667 170.666667-170.666667 170.666667 76.8 170.666667 170.666667-76.8 170.666667-170.666667 170.666667z m0-256c-46.933333 0-85.333333 38.4-85.333333 85.333333s38.4 85.333333 85.333333 85.333333 85.333333-38.4 85.333333-85.333333-38.4-85.333333-85.333333-85.333333z" p-id="1105"></path></svg>