<?xml version="1.0" standalone="no"?><!DOCTYPE svg PUBLIC "-//W3C//DTD SVG 1.1//EN" "http://www.w3.org/Graphics/SVG/1.1/DTD/svg11.dtd"><svg t="1547711613538" class="icon" style="" viewBox="0 0 1024 1024" version="1.1" xmlns="http://www.w3.org/2000/svg" p-id="2350" xmlns:xlink="http://www.w3.org/1999/xlink" width="128" height="128"><defs><style type="text/css"></style></defs><path d="M954.181818 221.090909 581.818182 221.090909c-12.846545 0-23.272727 10.426182-23.272727 23.272727s10.426182 23.272727 23.272727 23.272727l323.618909 0c-18.315636 20.619636-43.357091 48.081455-72.459636 78.091636l0 0C691.479273 491.578182 577.489455 571.892364 512 571.892364c-47.022545 0-113.012364-40.657455-180.107636-95.301818-1.093818-1.594182-2.327273-3.106909-3.886545-4.410182-1.605818-1.338182-3.374545-2.304-5.189818-3.106909C246.178909 405.329455 169.227636 325.061818 118.353455 267.636364L418.909091 267.636364c12.846545 0 23.272727-10.426182 23.272727-23.272727s-10.426182-23.272727-23.272727-23.272727L69.818182 221.090909c-12.846545 0-23.272727 10.426182-23.272727 23.272727l0 535.272727c0 12.846545 10.426182 23.272727 23.272727 23.272727l884.363636 0c12.846545 0 23.272727-10.426182 23.272727-23.272727L977.454545 244.363636C977.454545 231.517091 967.028364 221.090909 954.181818 221.090909zM93.090909 756.363636 93.090909 304.256c43.008 48.349091 113.757091 123.822545 189.765818 188.322909l-140.846545 168.494545c-7.633455 9.134545-6.423273 22.737455 2.711273 30.370909 4.037818 3.374545 8.936727 5.026909 13.824 5.026909 6.167273 0 12.288-2.641455 16.558545-7.738182l141.160727-168.866909c69.073455 54.213818 139.717818 95.162182 195.746909 95.162182 50.315636 0 116.258909-32.349091 196.910545-96.279273l151.458909 172.113455C864.64 695.703273 870.574545 698.181818 876.567273 698.181818c5.061818 0 10.135273-1.768727 14.242909-5.376 8.936727-7.877818 9.809455-21.504 1.943273-30.440727L742.155636 491.240727c37.736727-32.302545 78.289455-70.656 121.774545-115.490909l-15.476364-15.022545 15.476364 15.010909c26.135273-26.949818 49.082182-51.909818 66.978909-71.889455L930.909091 756.363636 93.090909 756.363636z" p-id="2351" fill="#bfbfbf"></path></svg>