<?xml version="1.0" standalone="no"?><!DOCTYPE svg PUBLIC "-//W3C//DTD SVG 1.1//EN" "http://www.w3.org/Graphics/SVG/1.1/DTD/svg11.dtd"><svg t="1545709882939" class="icon" style="" viewBox="0 0 1024 1024" version="1.1" xmlns="http://www.w3.org/2000/svg" p-id="3756" xmlns:xlink="http://www.w3.org/1999/xlink" width="128" height="128"><defs><style type="text/css"></style></defs><path d="M 900.035 200.551 L 587.708 20.2292 a 151.81 151.81 0 0 0 -151.416 0 L 123.965 200.551 a 151.825 151.825 0 0 0 -75.7082 131.127 v 360.644 a 151.84 151.84 0 0 0 75.7082 131.127 l 312.327 180.322 a 151.78 151.78 0 0 0 151.416 0 l 312.327 -180.322 a 151.84 151.84 0 0 0 75.7082 -131.127 V 331.678 a 151.825 151.825 0 0 0 -75.7082 -131.127 Z M 512 673.47 a 169.98 169.98 0 1 1 169.98 -169.965 a 169.98 169.98 0 0 1 -169.98 169.965 Z" fill="#bfbfbf" p-id="3757"></path></svg>
