<?xml version="1.0" standalone="no"?><!DOCTYPE svg PUBLIC "-//W3C//DTD SVG 1.1//EN" "http://www.w3.org/Graphics/SVG/1.1/DTD/svg11.dtd"><svg t="1548065399581" class="icon" style="" viewBox="0 0 1024 1024" version="1.1" xmlns="http://www.w3.org/2000/svg" p-id="6450" xmlns:xlink="http://www.w3.org/1999/xlink" width="128" height="128"><defs><style type="text/css"></style></defs><path d="M859.839173 654.532227 859.839173 505.551124l-322.791707 0 16.551978-99.321076 157.258627 0L710.85807 108.267842 313.575812 108.267842l0 297.962206 157.149133 0 16.334014 99.321076L164.594709 505.551124l0 149.59611-100.872409 0.418532 0 249.335718L313.575812 904.901485l0-246.749824 0-3.619434-99.321076 0.412392 0-99.732445 280.973276 0 15.473413 94.088912 1.515516 5.231141 16.551978-99.321076 281.409205 0 0 99.321076-99.321076 0 0 248.302179 246.749824 2.067079L957.606871 654.532227 859.839173 654.532227zM363.235838 356.570022 363.235838 157.927869l297.962206 0 0 198.641129-99.321076 0-99.321076 0L363.235838 356.568998zM263.915785 855.240435 113.382327 855.240435 113.382327 707.810664l150.532435 0L263.914762 855.240435zM907.947867 855.240435l-147.428747-2.067079L760.51912 704.192254l49.660027 0 49.660027 0 49.660027 0L907.947867 855.240435z" p-id="6451" fill="#bfbfbf"></path><path d="M364.788194 904.900461l292.272623 0 4.137227-250.369258L512.216941 654.531204 363.235838 654.531204 364.788194 904.900461zM611.538017 704.192254l0 148.981103-197.089797 2.067079-1.552356-151.048181L611.538017 704.192254z" p-id="6452" fill="#bfbfbf"></path></svg>