<?xml version="1.0" standalone="no"?><!DOCTYPE svg PUBLIC "-//W3C//DTD SVG 1.1//EN" "http://www.w3.org/Graphics/SVG/1.1/DTD/svg11.dtd"><svg t="1548064717971" class="icon" style="" viewBox="0 0 1024 1024" version="1.1" xmlns="http://www.w3.org/2000/svg" p-id="628" xmlns:xlink="http://www.w3.org/1999/xlink" width="128" height="128"><defs><style type="text/css"></style></defs><path d="M1004.3392 78.7456C1017.4464 78.7456 1024 85.2992 1024 98.5088c0 13.2096-6.5536 19.6608-19.6608 19.6608L866.5088 118.1696l0 59.0848c0 13.2096-6.5536 19.6608-19.6608 19.6608L571.0848 196.9152c-13.1072 0-19.6608-6.5536-19.6608-19.6608L551.424 118.1696 19.6608 118.1696C6.5536 118.1696 0 111.616 0 98.5088c0-13.1072 6.5536-19.6608 19.6608-19.6608l531.6608 0L551.3216 19.6608C551.424 6.5536 557.9776 0 571.0848 0l275.6608 0c13.1072 0 19.6608 6.5536 19.6608 19.6608l0 59.0848L1004.3392 78.7456zM1004.3392 433.2544C1017.4464 433.2544 1024 439.808 1024 452.9152c0 13.2096-6.5536 19.6608-19.6608 19.6608L472.576 472.576l0 59.0848c0 13.2096-6.5536 19.6608-19.6608 19.6608L177.2544 551.3216c-13.1072 0-19.6608-6.5536-19.6608-19.6608L157.5936 472.576 19.6608 472.576C6.5536 472.576 0 466.1248 0 452.9152c0-13.1072 6.5536-19.6608 19.6608-19.6608l137.8304 0L157.4912 374.1696c0-13.1072 6.5536-19.6608 19.6608-19.6608l275.6608 0c13.1072 0 19.6608 6.5536 19.6608 19.6608l0 59.0848L1004.3392 433.2544zM1004.3392 787.6608C1017.4464 787.6608 1024 794.2144 1024 807.424c0 13.2096-6.5536 19.6608-19.6608 19.6608L669.4912 827.0848l0 59.0848c0 13.2096-6.5536 19.6608-19.6608 19.6608L374.1696 905.8304c-13.1072 0-19.6608-6.5536-19.6608-19.6608L354.5088 827.0848 19.6608 827.0848C6.5536 827.0848 0 820.5312 0 807.424c0-13.1072 6.5536-19.6608 19.6608-19.6608l334.7456 0L354.4064 728.576c0-13.1072 6.5536-19.6608 19.6608-19.6608l275.6608 0c13.1072 0 19.6608 6.5536 19.6608 19.6608l0 59.0848L1004.3392 787.6608zM433.2544 393.8304 196.9152 393.8304 196.9152 512l236.3392 0L433.2544 393.8304zM630.1696 748.3392 393.8304 748.3392l0 118.1696 236.3392 0L630.1696 748.3392zM827.0848 39.424 590.7456 39.424l0 118.1696 236.3392 0L827.0848 39.424z" p-id="629" fill="#bfbfbf"></path></svg>